<svg width="19" height="17" viewBox="0 0 19 17" fill="none" xmlns="http://www.w3.org/2000/svg">
<g clip-path="url(#clip0_12_2591)">
<g clip-path="url(#clip1_12_2591)">
<g clip-path="url(#clip2_12_2591)">
<path d="M17.0831 5.51074C17.0831 6.4085 16.3374 7.13659 15.4176 7.13659C14.4967 7.13659 13.7515 6.4085 13.7515 5.51074C13.7515 4.61298 14.4971 3.88509 15.4176 3.88509C16.3374 3.88509 17.0831 4.61298 17.0831 5.51074ZM16.4119 8.25771L14.3947 9.94152C14.4166 10.076 14.4313 10.2126 14.4313 10.3526C14.4313 11.786 13.2405 12.9484 11.7721 12.9484C10.5054 12.9484 9.44752 12.0835 9.17952 10.9263L4.19333 9.27519C3.79933 9.56712 3.30953 9.74269 2.77673 9.74269C1.48073 9.74249 0.429932 8.71659 0.429932 7.45165C0.429932 6.1869 1.48073 5.16159 2.77673 5.16159C3.89113 5.16159 4.82193 5.91985 5.06213 6.93576L9.87875 8.53084C10.3479 8.06668 10.995 7.77572 11.7119 7.76005L12.4333 5.61968C12.4312 5.57716 12.4267 5.53523 12.4267 5.49232C12.4267 3.8749 13.7707 2.56372 15.4284 2.56372C17.0857 2.56372 18.4299 3.8749 18.4299 5.49232C18.4299 6.77372 17.5857 7.85997 16.4119 8.25771ZM4.25233 6.66772C3.97193 6.17515 3.43373 5.84148 2.81553 5.84148C1.90793 5.84148 1.17213 6.55957 1.17213 7.44518C1.17213 8.33079 1.90793 9.0487 2.81553 9.0487C2.98333 9.0487 3.14493 9.0242 3.29733 8.97855L2.51653 8.72011C1.88733 8.39134 1.65053 7.62701 1.98753 7.01295C2.32473 6.3993 3.10793 6.16849 3.73653 6.49726L4.25233 6.66772ZM13.0875 5.49938C13.0875 6.7557 14.1311 7.77415 15.4185 7.77415C16.7059 7.77415 17.7502 6.7557 17.7502 5.49938C17.7502 4.24247 16.7057 3.22401 15.4185 3.22401C14.1311 3.22401 13.0875 4.24247 13.0875 5.49938ZM13.1335 10.5752C13.1335 9.61884 12.3389 8.84316 11.3589 8.84316C11.2213 8.84316 11.0886 8.86001 10.9601 8.88861L11.9519 9.217C12.5809 9.54615 12.8171 10.3103 12.4803 10.9238C12.1434 11.5384 11.3602 11.7686 10.7315 11.44L9.66276 11.086C9.88595 11.7931 10.561 12.3071 11.3589 12.3071C12.3389 12.3073 13.1335 11.5315 13.1335 10.5752Z" fill="white"/>
</g>
</g>
</g>
<defs>
<clipPath id="clip0_12_2591">
<rect width="18" height="16" fill="white" transform="translate(0.429932 0.0999756)"/>
</clipPath>
<clipPath id="clip1_12_2591">
<rect width="18" height="16" fill="white" transform="translate(0.429932 0.0999756)"/>
</clipPath>
<clipPath id="clip2_12_2591">
<rect width="18" height="11.0769" fill="white" transform="translate(0.429932 2.56152)"/>
</clipPath>
</defs>
</svg>
